<?xml version="1.0" standalone="no"?>
<!DOCTYPE svg PUBLIC "-//W3C//DTD SVG 20010904//EN"
 "http://www.w3.org/TR/2001/REC-SVG-20010904/DTD/svg10.dtd">
<svg version="1.0" xmlns="http://www.w3.org/2000/svg"
 width="1050.000000pt" height="1050.000000pt" viewBox="0 0 1050.000000 1050.000000"
 preserveAspectRatio="xMidYMid meet">
<metadata>
Created by potrace 1.14, written by Peter Selinger 2001-2017
</metadata>
<g transform="translate(0.000000,1050.000000) scale(0.100000,-0.100000)"
fill="#000000" stroke="none">
<path d="M6920 7409 c-223 -159 -408 -289 -411 -289 -4 0 -135 49 -292 109
l-285 110 -518 -150 c-286 -83 -541 -157 -569 -164 -27 -8 -214 -62 -415 -120
-201 -58 -448 -130 -550 -160 -102 -29 -320 -92 -485 -140 -165 -48 -307 -88
-315 -91 -8 -2 -145 -41 -305 -88 -638 -185 -821 -238 -844 -242 -14 -3 -28
-7 -31 -9 -4 -3 -79 -25 -166 -51 -195 -56 -678 -196 -954 -275 -113 -32 -210
-61 -216 -63 -9 -3 -9 -21 0 -70 7 -36 11 -68 8 -71 -6 -5 54 -6 356 -6 l182
0 0 -585 0 -586 33 6 c17 3 66 8 107 12 41 3 80 10 85 14 7 6 10 204 10 569 0
491 2 560 15 563 8 2 809 3 1780 3 l1765 -1 3 -463 2 -463 43 6 c23 3 83 8
132 12 50 3 97 8 105 9 13 2 15 67 15 521 l0 519 35 26 c19 14 73 52 120 84
47 32 105 73 130 90 25 17 135 94 245 170 110 76 220 153 245 170 25 17 135
94 245 170 110 76 234 162 275 190 41 29 201 139 355 246 154 107 290 201 302
209 12 8 56 39 97 68 l77 53 27 -18 c15 -10 36 -23 47 -30 21 -12 216 -133
430 -267 71 -44 134 -83 140 -86 6 -3 141 -86 300 -186 331 -206 908 -565
1067 -663 l108 -66 0 -92 c0 -51 2 -93 4 -93 2 0 108 53 236 117 l231 116
-263 174 c-145 96 -386 256 -536 356 -150 100 -281 187 -290 192 -44 26 -107
71 -110 78 -2 4 -7 7 -12 7 -4 0 -171 109 -371 242 -574 381 -1009 668 -1012
667 -1 0 -184 -130 -407 -290z"/>
<path d="M6669 6318 c0 -7 -1 -125 -1 -263 l-1 -250 342 -3 341 -2 0 264 0
265 -340 0 c-268 1 -340 -1 -341 -11z"/>
<path d="M7449 6292 c-3 -122 -4 -469 -1 -479 3 -10 81 -13 343 -13 l339 0 0
264 0 264 -340 1 -340 0 -1 -37z"/>
<path d="M10255 6134 c-124 -151 -378 -402 -540 -534 -44 -36 -82 -67 -85 -70
-14 -15 -198 -147 -290 -207 -327 -217 -748 -417 -1160 -551 -156 -50 -259
-81 -325 -98 -228 -57 -438 -104 -630 -138 -16 -3 -39 -8 -50 -10 -11 -2 -45
-7 -75 -11 -30 -4 -64 -9 -75 -11 -11 -3 -38 -6 -60 -9 -22 -3 -58 -8 -80 -11
-22 -4 -51 -8 -65 -9 -25 -3 -117 -13 -180 -20 -117 -14 -195 -21 -335 -30
-49 -4 -110 -8 -135 -10 -151 -12 -475 -20 -805 -19 -403 0 -615 7 -960 29
-38 2 -122 7 -185 11 -63 3 -137 8 -165 9 -378 24 -1174 24 -1427 0 -23 -2
-86 -7 -138 -10 -52 -4 -108 -8 -125 -9 -121 -12 -176 -18 -215 -22 -25 -3
-61 -7 -80 -9 -58 -6 -144 -17 -160 -20 -34 -6 -115 -18 -200 -30 -262 -37
-722 -147 -970 -232 -169 -58 -430 -165 -430 -177 0 -2 26 3 57 10 32 8 67 16
78 18 11 2 31 7 45 10 14 3 36 8 50 10 14 2 46 9 73 15 26 6 64 14 85 17 20 3
53 9 72 14 19 5 51 11 70 14 29 4 193 31 311 51 15 3 47 7 70 10 24 3 78 10
119 15 118 15 150 19 225 25 39 4 76 8 82 10 7 3 57 7 110 11 54 3 114 8 133
10 214 21 924 21 1140 -1 19 -2 79 -6 133 -10 53 -3 107 -8 120 -10 12 -2 54
-7 92 -10 128 -13 144 -15 255 -30 19 -3 52 -7 72 -10 21 -2 55 -7 75 -10 21
-3 65 -10 98 -15 50 -8 258 -42 330 -55 11 -2 31 -6 45 -9 26 -6 60 -12 120
-22 19 -3 136 -26 260 -50 124 -25 270 -54 325 -64 55 -11 111 -22 125 -25 25
-5 90 -17 305 -56 224 -40 508 -81 660 -95 39 -3 84 -8 100 -9 74 -8 313 -18
445 -18 264 -1 598 26 795 64 28 6 65 12 84 15 63 8 304 66 446 106 77 22 147
41 155 43 43 10 347 122 435 160 17 7 59 25 95 40 441 188 900 515 1170 835
30 36 57 67 60 70 3 3 31 40 63 82 210 282 363 629 418 948 11 66 22 180 18
179 -2 0 -35 -38 -74 -85z"/>
<path d="M6669 5706 c-1 -14 -1 -486 0 -503 1 -10 76 -13 341 -13 l340 0 0
264 0 264 -340 0 c-245 0 -340 -4 -341 -12z"/>
<path d="M7448 5706 c-3 -9 -2 -407 1 -488 l1 -28 340 0 340 0 0 264 0 264
-339 -1 c-241 0 -341 -3 -343 -11z"/>
<path d="M2578 5188 c-2 -7 -4 -125 -4 -263 l1 -250 343 -3 342 -2 0 265 0
265 -339 0 c-262 0 -340 -3 -343 -12z"/>
<path d="M3357 5193 c-2 -5 -3 -123 -3 -263 l1 -255 343 -3 342 -2 0 265 0
265 -339 0 c-187 0 -341 -3 -344 -7z"/>
<path d="M2007 3974 c-1 -1 -94 -4 -207 -8 -113 -4 -225 -9 -250 -11 -201 -19
-345 -37 -460 -60 -13 -3 -42 -7 -65 -11 -53 -8 -283 -67 -364 -94 -119 -40
-272 -112 -337 -160 -317 -231 -182 -583 286 -748 159 -55 292 -75 510 -76
174 -1 317 7 360 19 8 2 31 6 50 9 58 9 91 16 170 33 l75 16 -124 23 c-436 80
-681 202 -683 341 -1 119 140 236 372 306 94 29 194 53 255 62 22 4 50 8 61
10 12 2 48 6 80 10 33 4 68 8 79 10 168 25 928 26 1064 0 9 -1 61 -6 116 -10
55 -4 106 -8 115 -10 8 -1 42 -6 75 -9 85 -9 113 -13 270 -36 77 -11 156 -22
175 -25 20 -3 47 -8 60 -10 14 -3 39 -8 55 -11 17 -3 113 -21 215 -40 158 -30
315 -58 435 -77 17 -3 62 -10 100 -16 39 -7 81 -14 95 -16 14 -3 50 -7 80 -11
30 -3 57 -7 60 -9 3 -2 34 -6 70 -9 36 -4 76 -9 90 -11 14 -3 45 -7 70 -10 62
-7 138 -15 180 -20 19 -3 71 -7 114 -11 44 -3 93 -7 110 -9 200 -26 968 -26
1104 -1 9 2 42 7 72 11 104 13 125 17 215 36 94 21 225 59 225 66 0 2 -18 1
-41 -2 -85 -13 -484 -7 -709 10 -19 1 -78 5 -130 9 -52 4 -102 9 -110 11 -8 2
-46 6 -85 10 -78 6 -137 13 -175 20 -14 2 -53 7 -88 10 -35 4 -73 8 -85 11
-12 2 -42 7 -67 10 -89 10 -307 44 -505 79 -77 13 -156 27 -175 30 -19 3 -42
8 -50 10 -8 2 -28 7 -45 10 -34 6 -69 12 -105 20 -14 3 -34 7 -45 9 -45 9
-181 38 -200 43 -18 4 -52 12 -120 27 -11 2 -81 16 -155 31 -74 15 -144 28
-155 31 -31 7 -58 11 -220 38 -198 33 -216 36 -405 61 -201 26 -248 32 -360
41 -41 3 -86 8 -100 10 -14 2 -65 6 -115 10 -49 3 -108 7 -130 9 -51 6 -594
22 -598 19z"/>
</g>
</svg>
