<svg width="128" height="48" viewBox="0 0 128 48" fill="none" xmlns="http://www.w3.org/2000/svg">
<rect x="0.5" y="0.5" width="127" height="47" rx="7.5" fill="white" stroke="#3077C6"/>
<path d="M25.9521 30V17.2031H30.1357C31.5244 17.2031 32.5674 17.4902 33.2646 18.0645C33.9678 18.6387 34.3193 19.4883 34.3193 20.6133C34.3193 21.2109 34.1494 21.7412 33.8096 22.2041C33.4697 22.6611 33.0068 23.0156 32.4209 23.2676C33.1123 23.4609 33.6572 23.8301 34.0557 24.375C34.46 24.9141 34.6621 25.5586 34.6621 26.3086C34.6621 27.457 34.29 28.3594 33.5459 29.0156C32.8018 29.6719 31.75 30 30.3906 30H25.9521ZM27.6396 24.0146V28.6201H30.4258C31.2109 28.6201 31.8291 28.418 32.2803 28.0137C32.7373 27.6035 32.9658 27.041 32.9658 26.3262C32.9658 24.7852 32.1279 24.0146 30.4521 24.0146H27.6396ZM27.6396 22.6611H30.1885C30.9268 22.6611 31.5156 22.4766 31.9551 22.1074C32.4004 21.7383 32.623 21.2373 32.623 20.6045C32.623 19.9014 32.418 19.3916 32.0078 19.0752C31.5977 18.7529 30.9736 18.5918 30.1357 18.5918H27.6396V22.6611ZM36.4814 25.1572C36.4814 24.2256 36.6631 23.3877 37.0264 22.6436C37.3955 21.8994 37.9053 21.3252 38.5557 20.9209C39.2119 20.5166 39.959 20.3145 40.7969 20.3145C42.0918 20.3145 43.1377 20.7627 43.9346 21.6592C44.7373 22.5557 45.1387 23.748 45.1387 25.2363V25.3506C45.1387 26.2764 44.96 27.1084 44.6025 27.8467C44.251 28.5791 43.7441 29.1504 43.082 29.5605C42.4258 29.9707 41.6699 30.1758 40.8145 30.1758C39.5254 30.1758 38.4795 29.7275 37.6768 28.8311C36.8799 27.9346 36.4814 26.748 36.4814 25.2715V25.1572ZM38.1162 25.3506C38.1162 26.4053 38.3594 27.252 38.8457 27.8906C39.3379 28.5293 39.9941 28.8486 40.8145 28.8486C41.6406 28.8486 42.2969 28.5264 42.7832 27.8818C43.2695 27.2314 43.5127 26.3232 43.5127 25.1572C43.5127 24.1143 43.2637 23.2705 42.7656 22.626C42.2734 21.9756 41.6172 21.6504 40.7969 21.6504C39.9941 21.6504 39.3467 21.9697 38.8545 22.6084C38.3623 23.2471 38.1162 24.1611 38.1162 25.3506ZM46.7471 25.1572C46.7471 24.2256 46.9287 23.3877 47.292 22.6436C47.6611 21.8994 48.1709 21.3252 48.8213 20.9209C49.4775 20.5166 50.2246 20.3145 51.0625 20.3145C52.3574 20.3145 53.4033 20.7627 54.2002 21.6592C55.0029 22.5557 55.4043 23.748 55.4043 25.2363V25.3506C55.4043 26.2764 55.2256 27.1084 54.8682 27.8467C54.5166 28.5791 54.0098 29.1504 53.3477 29.5605C52.6914 29.9707 51.9355 30.1758 51.0801 30.1758C49.791 30.1758 48.7451 29.7275 47.9424 28.8311C47.1455 27.9346 46.7471 26.748 46.7471 25.2715V25.1572ZM48.3818 25.3506C48.3818 26.4053 48.625 27.252 49.1113 27.8906C49.6035 28.5293 50.2598 28.8486 51.0801 28.8486C51.9062 28.8486 52.5625 28.5264 53.0488 27.8818C53.5352 27.2314 53.7783 26.3232 53.7783 25.1572C53.7783 24.1143 53.5293 23.2705 53.0312 22.626C52.5391 21.9756 51.8828 21.6504 51.0625 21.6504C50.2598 21.6504 49.6123 21.9697 49.1201 22.6084C48.6279 23.2471 48.3818 24.1611 48.3818 25.3506ZM60.0977 25.5967L59.0781 26.6602V30H57.4521V16.5H59.0781V24.665L59.9482 23.6191L62.9102 20.4902H64.8877L61.1875 24.4629L65.3184 30H63.4111L60.0977 25.5967ZM72.5693 20.4902L72.6221 21.6855C73.3486 20.7715 74.2979 20.3145 75.4697 20.3145C77.4795 20.3145 78.4932 21.4482 78.5107 23.7158V30H76.8848V23.707C76.8789 23.0215 76.7207 22.5146 76.4102 22.1865C76.1055 21.8584 75.6279 21.6943 74.9775 21.6943C74.4502 21.6943 73.9873 21.835 73.5889 22.1162C73.1904 22.3975 72.8799 22.7666 72.6572 23.2236V30H71.0312V20.4902H72.5693ZM80.5322 25.1572C80.5322 24.2256 80.7139 23.3877 81.0771 22.6436C81.4463 21.8994 81.9561 21.3252 82.6064 20.9209C83.2627 20.5166 84.0098 20.3145 84.8477 20.3145C86.1426 20.3145 87.1885 20.7627 87.9854 21.6592C88.7881 22.5557 89.1895 23.748 89.1895 25.2363V25.3506C89.1895 26.2764 89.0107 27.1084 88.6533 27.8467C88.3018 28.5791 87.7949 29.1504 87.1328 29.5605C86.4766 29.9707 85.7207 30.1758 84.8652 30.1758C83.5762 30.1758 82.5303 29.7275 81.7275 28.8311C80.9307 27.9346 80.5322 26.748 80.5322 25.2715V25.1572ZM82.167 25.3506C82.167 26.4053 82.4102 27.252 82.8965 27.8906C83.3887 28.5293 84.0449 28.8486 84.8652 28.8486C85.6914 28.8486 86.3477 28.5264 86.834 27.8818C87.3203 27.2314 87.5635 26.3232 87.5635 25.1572C87.5635 24.1143 87.3145 23.2705 86.8164 22.626C86.3242 21.9756 85.668 21.6504 84.8477 21.6504C84.0449 21.6504 83.3975 21.9697 82.9053 22.6084C82.4131 23.2471 82.167 24.1611 82.167 25.3506ZM99.6484 27.7588L101.477 20.4902H103.103L100.334 30H99.0156L96.7041 22.793L94.4541 30H93.1357L90.376 20.4902H91.9932L93.8652 27.6094L96.0801 20.4902H97.3896L99.6484 27.7588Z" fill="#3077C6"/>
</svg>
