<svg width="54" height="12" viewBox="0 0 54 12" fill="none" xmlns="http://www.w3.org/2000/svg">
<path d="M0.585805 3.60941C0.53214 3.52153 0.482307 3.4017 0.436308 3.24991C0.390309 3.09812 0.36731 2.93835 0.36731 2.77058C0.36731 2.45902 0.432475 2.23533 0.562806 2.09952C0.700803 1.96371 0.877133 1.89581 1.09179 1.89581H6.10569C6.15936 1.98369 6.20919 2.10352 6.25519 2.2553C6.30119 2.40709 6.32419 2.56687 6.32419 2.73463C6.32419 3.0462 6.25519 3.26988 6.11719 3.40569C5.98686 3.5415 5.81437 3.60941 5.5997 3.60941H4.32323V9.14564C4.2389 9.16961 4.10473 9.19357 3.92074 9.21754C3.74441 9.24151 3.56808 9.25349 3.39175 9.25349C3.21542 9.25349 3.05825 9.23751 2.92026 9.20556C2.78993 9.18159 2.67876 9.13366 2.58676 9.06176C2.49477 8.98986 2.42577 8.89 2.37977 8.76218C2.33377 8.63436 2.31077 8.46659 2.31077 8.25889V3.60941H0.585805Z" fill="white"/>
<path d="M8.64283 9.18159C8.56616 9.20556 8.4435 9.22952 8.27484 9.25349C8.11384 9.27746 7.94518 9.28944 7.76885 9.28944C7.60018 9.28944 7.44685 9.27746 7.30886 9.25349C7.17853 9.22952 7.06736 9.18159 6.97536 9.10969C6.88336 9.03779 6.81053 8.94193 6.75687 8.8221C6.71087 8.69428 6.68787 8.53051 6.68787 8.33079V4.73583C6.68787 4.55208 6.71853 4.3963 6.77987 4.26848C6.84887 4.13267 6.9447 4.01284 7.06736 3.90899C7.19002 3.80513 7.33952 3.71326 7.51585 3.63337C7.69985 3.5455 7.89534 3.4696 8.10234 3.40569C8.30934 3.34178 8.524 3.29385 8.74633 3.26189C8.96866 3.22195 9.19098 3.20198 9.41331 3.20198C9.78131 3.20198 10.0726 3.27787 10.2873 3.42966C10.502 3.57346 10.6093 3.81312 10.6093 4.14865C10.6093 4.26049 10.594 4.37234 10.5633 4.48418C10.5326 4.58803 10.4943 4.6839 10.4483 4.77178C10.2873 4.77178 10.1225 4.77976 9.9538 4.79574C9.78514 4.81172 9.62031 4.83569 9.45931 4.86764C9.29832 4.8996 9.14499 4.93555 8.99932 4.97549C8.86132 5.00745 8.74249 5.04739 8.64283 5.09532V9.18159Z" fill="white"/>
<path d="M11.3698 1.75201C11.3698 1.44844 11.4656 1.19279 11.6573 0.985086C11.8566 0.777377 12.1173 0.673523 12.4393 0.673523C12.7613 0.673523 13.0181 0.777377 13.2098 0.985086C13.4091 1.19279 13.5088 1.44844 13.5088 1.75201C13.5088 2.05558 13.4091 2.31123 13.2098 2.51893C13.0181 2.72664 12.7613 2.8305 12.4393 2.8305C12.1173 2.8305 11.8566 2.72664 11.6573 2.51893C11.4656 2.31123 11.3698 2.05558 11.3698 1.75201ZM13.4168 9.18159C13.3324 9.19757 13.2059 9.21754 13.0373 9.24151C12.8763 9.27346 12.7114 9.28944 12.5428 9.28944C12.3741 9.28944 12.2208 9.27746 12.0828 9.25349C11.9525 9.22952 11.8413 9.18159 11.7493 9.10969C11.6573 9.03779 11.5845 8.94193 11.5308 8.8221C11.4848 8.69428 11.4618 8.53051 11.4618 8.33079V3.45362C11.5461 3.43765 11.6688 3.41767 11.8298 3.39371C11.9985 3.36175 12.1671 3.34578 12.3358 3.34578C12.5044 3.34578 12.6539 3.35776 12.7843 3.38173C12.9223 3.40569 13.0373 3.45362 13.1293 3.52552C13.2213 3.59742 13.2903 3.69728 13.3363 3.8251C13.3899 3.94494 13.4168 4.10471 13.4168 4.30443V9.18159Z" fill="white"/>
<path d="M17.2258 3.18999C17.6858 3.18999 18.1113 3.2539 18.5023 3.38173C18.9009 3.50156 19.2421 3.68929 19.5257 3.94494C19.8094 4.20058 20.0317 4.52412 20.1927 4.91557C20.3537 5.29904 20.4342 5.75839 20.4342 6.29364C20.4342 6.80492 20.3652 7.2523 20.2272 7.63576C20.0892 8.01922 19.8937 8.34277 19.6407 8.6064C19.3877 8.86204 19.0811 9.05377 18.7208 9.18159C18.3681 9.30941 17.9733 9.37332 17.5363 9.37332C17.2066 9.37332 16.9 9.3214 16.6163 9.21754V11.2068C16.5396 11.2307 16.417 11.2547 16.2483 11.2787C16.0796 11.3106 15.9071 11.3266 15.7308 11.3266C15.5622 11.3266 15.4088 11.3146 15.2708 11.2906C15.1405 11.2667 15.0293 11.2187 14.9373 11.1468C14.8453 11.0749 14.7763 10.9751 14.7303 10.8473C14.6843 10.7274 14.6613 10.5676 14.6613 10.3679V4.61599C14.6613 4.4003 14.7035 4.22454 14.7878 4.08873C14.8798 3.95292 15.0025 3.8291 15.1558 3.71725C15.3935 3.55748 15.6887 3.42966 16.0413 3.33379C16.394 3.23793 16.7888 3.18999 17.2258 3.18999ZM17.2488 7.76757C18.0384 7.76757 18.4333 7.27626 18.4333 6.29364C18.4333 5.78236 18.3336 5.40289 18.1343 5.15524C17.9426 4.90759 17.6628 4.78376 17.2948 4.78376C17.1491 4.78376 17.0188 4.80373 16.9038 4.84368C16.7888 4.87563 16.6891 4.91557 16.6048 4.96351V7.59981C16.6968 7.64774 16.7965 7.68769 16.9038 7.71964C17.0111 7.7516 17.1261 7.76757 17.2488 7.76757Z" fill="white"/>
<path d="M27.7706 9.14564C27.6863 9.16961 27.5521 9.19357 27.3681 9.21754C27.1918 9.24151 27.0155 9.25349 26.8391 9.25349C26.6628 9.25349 26.5056 9.23751 26.3677 9.20556C26.2373 9.18159 26.1262 9.13366 26.0342 9.06176C25.9422 8.98986 25.8732 8.89 25.8272 8.76218C25.7812 8.63436 25.7582 8.46659 25.7582 8.25889V6.38951H23.5502V9.14564C23.4659 9.16961 23.3317 9.19357 23.1477 9.21754C22.9714 9.24151 22.7951 9.25349 22.6187 9.25349C22.4424 9.25349 22.2852 9.23751 22.1472 9.20556C22.0169 9.18159 21.9057 9.13366 21.8137 9.06176C21.7217 8.98986 21.6527 8.89 21.6067 8.76218C21.5608 8.63436 21.5378 8.46659 21.5378 8.25889V1.93176C21.6221 1.91578 21.7562 1.89581 21.9402 1.87184C22.1242 1.83989 22.3006 1.82391 22.4692 1.82391C22.6456 1.82391 22.7989 1.83989 22.9292 1.87184C23.0672 1.89581 23.1822 1.94374 23.2742 2.01564C23.3662 2.08754 23.4352 2.1874 23.4812 2.31522C23.5272 2.44304 23.5502 2.61081 23.5502 2.81852V4.73583H25.7582V1.93176C25.8425 1.91578 25.9767 1.89581 26.1607 1.87184C26.3447 1.83989 26.521 1.82391 26.6896 1.82391C26.866 1.82391 27.0193 1.83989 27.1496 1.87184C27.2876 1.89581 27.4026 1.94374 27.4946 2.01564C27.5866 2.08754 27.6556 2.1874 27.7016 2.31522C27.7476 2.44304 27.7706 2.61081 27.7706 2.81852V9.14564Z" fill="white"/>
<path d="M34.899 6.28166C34.899 6.77696 34.8262 7.22034 34.6805 7.61179C34.5349 7.99526 34.3279 8.3188 34.0596 8.58243C33.7989 8.84606 33.4846 9.04578 33.1166 9.18159C32.7486 9.3174 32.3384 9.38531 31.8861 9.38531C31.4338 9.38531 31.0236 9.31341 30.6556 9.16961C30.2876 9.02581 29.9695 8.8221 29.7011 8.55847C29.4405 8.28685 29.2373 7.95931 29.0917 7.57584C28.946 7.19238 28.8732 6.76099 28.8732 6.28166C28.8732 5.81032 28.946 5.38292 29.0917 4.99946C29.2373 4.61599 29.4405 4.29245 29.7011 4.02882C29.9695 3.7572 30.2876 3.54949 30.6556 3.40569C31.0236 3.26189 31.4338 3.18999 31.8861 3.18999C32.3384 3.18999 32.7486 3.26589 33.1166 3.41767C33.4846 3.56147 33.7989 3.76918 34.0596 4.0408C34.3279 4.30443 34.5349 4.62798 34.6805 5.01144C34.8262 5.3949 34.899 5.81831 34.899 6.28166ZM30.8741 6.28166C30.8741 6.76898 30.9623 7.14445 31.1386 7.40808C31.3226 7.66372 31.5756 7.79154 31.8976 7.79154C32.2196 7.79154 32.4649 7.65973 32.6336 7.3961C32.8099 7.13247 32.8981 6.76099 32.8981 6.28166C32.8981 5.80233 32.8099 5.43485 32.6336 5.1792C32.4573 4.91557 32.2081 4.78376 31.8861 4.78376C31.5641 4.78376 31.3149 4.91557 31.1386 5.1792C30.9623 5.43485 30.8741 5.80233 30.8741 6.28166Z" fill="white"/>
<path d="M35.8528 3.45362C35.9295 3.42966 36.0483 3.40569 36.2093 3.38173C36.378 3.35776 36.5505 3.34578 36.7268 3.34578C36.8954 3.34578 37.0449 3.35776 37.1753 3.38173C37.3133 3.40569 37.4283 3.45362 37.5203 3.52552C37.6123 3.59742 37.6813 3.69728 37.7273 3.8251C37.7809 3.94494 37.8078 4.10471 37.8078 4.30443V6.88082C37.8078 7.20836 37.8844 7.44403 38.0378 7.58783C38.1911 7.72364 38.4134 7.79154 38.7047 7.79154C38.8811 7.79154 39.0229 7.77556 39.1302 7.74361C39.2452 7.71165 39.3334 7.6797 39.3947 7.64774V3.45362C39.4714 3.42966 39.5902 3.40569 39.7512 3.38173C39.9199 3.35776 40.0924 3.34578 40.2687 3.34578C40.4374 3.34578 40.5869 3.35776 40.7172 3.38173C40.8552 3.40569 40.9702 3.45362 41.0622 3.52552C41.1542 3.59742 41.2232 3.69728 41.2692 3.8251C41.3229 3.94494 41.3497 4.10471 41.3497 4.30443V7.94732C41.3497 8.34676 41.1887 8.64634 40.8667 8.84606C40.5984 9.02182 40.2764 9.15363 39.9007 9.24151C39.5327 9.33737 39.1302 9.38531 38.6932 9.38531C38.2793 9.38531 37.8959 9.33737 37.5433 9.24151C37.1983 9.14564 36.8993 8.99785 36.6463 8.79813C36.3933 8.59841 36.1978 8.34277 36.0598 8.03121C35.9218 7.71165 35.8528 7.32819 35.8528 6.88082V3.45362Z" fill="white"/>
<path d="M47.2609 7.45601C47.2609 8.06316 47.0424 8.53849 46.6054 8.88201C46.1684 9.22553 45.5245 9.39729 44.6735 9.39729C44.3515 9.39729 44.0525 9.37332 43.7765 9.32539C43.5005 9.27746 43.2628 9.20556 43.0635 9.10969C42.8719 9.00584 42.7185 8.87802 42.6035 8.72623C42.4962 8.57444 42.4425 8.3947 42.4425 8.18699C42.4425 7.99526 42.4809 7.83548 42.5575 7.70766C42.6342 7.57185 42.7262 7.46001 42.8335 7.37213C43.0558 7.49995 43.3088 7.61579 43.5925 7.71964C43.8838 7.81551 44.2173 7.86344 44.593 7.86344C44.8306 7.86344 45.0108 7.82749 45.1335 7.75559C45.2638 7.68369 45.329 7.58783 45.329 7.46799C45.329 7.35615 45.283 7.26828 45.191 7.20436C45.099 7.14045 44.9456 7.08853 44.731 7.04858L44.386 6.97668C43.719 6.84087 43.2207 6.62917 42.891 6.34157C42.569 6.04599 42.408 5.62658 42.408 5.08334C42.408 4.78775 42.4694 4.52013 42.592 4.28046C42.7147 4.0408 42.8872 3.84108 43.1095 3.68131C43.3318 3.52153 43.5963 3.3977 43.903 3.30983C44.2173 3.22195 44.5623 3.17801 44.938 3.17801C45.2216 3.17801 45.4861 3.20198 45.7315 3.24991C45.9845 3.28985 46.203 3.35376 46.3869 3.44164C46.5709 3.52952 46.7166 3.64536 46.8239 3.78915C46.9313 3.92496 46.9849 4.08873 46.9849 4.28046C46.9849 4.46421 46.9504 4.62398 46.8814 4.75979C46.8201 4.88761 46.7396 4.99546 46.6399 5.08334C46.5786 5.0434 46.4866 5.00345 46.3639 4.96351C46.2413 4.91557 46.1071 4.87563 45.9615 4.84368C45.8158 4.80373 45.6663 4.77178 45.513 4.74781C45.3673 4.72384 45.2331 4.71186 45.1105 4.71186C44.8575 4.71186 44.662 4.74382 44.524 4.80773C44.386 4.86365 44.317 4.95552 44.317 5.08334C44.317 5.17122 44.3553 5.24311 44.432 5.29904C44.5087 5.35496 44.6543 5.40689 44.869 5.45482L45.2255 5.5387C45.9615 5.71445 46.4828 5.95811 46.7894 6.26968C47.1038 6.57325 47.2609 6.9687 47.2609 7.45601Z" fill="white"/>
<path d="M51.2177 9.38531C50.7653 9.38531 50.3437 9.3214 49.9527 9.19357C49.5694 9.05777 49.232 8.85805 48.9407 8.59442C48.657 8.33078 48.4309 7.99925 48.2622 7.59981C48.1012 7.20037 48.0207 6.73303 48.0207 6.19778C48.0207 5.67052 48.1012 5.21915 48.2622 4.84368C48.4309 4.46021 48.6494 4.14865 48.9177 3.90899C49.186 3.66133 49.4927 3.48159 49.8377 3.36974C50.1827 3.24991 50.5353 3.18999 50.8957 3.18999C51.302 3.18999 51.67 3.2539 51.9996 3.38173C52.337 3.50955 52.6245 3.6853 52.8621 3.90899C53.1075 4.13267 53.2953 4.4003 53.4256 4.71186C53.5636 5.02342 53.6326 5.36295 53.6326 5.73043C53.6326 6.00205 53.5598 6.20976 53.4141 6.35356C53.2684 6.49736 53.0653 6.58923 52.8046 6.62917L49.9642 7.07255C50.0485 7.33618 50.221 7.5359 50.4817 7.67171C50.7423 7.79953 51.0413 7.86344 51.3787 7.86344C51.693 7.86344 51.9881 7.8235 52.2641 7.74361C52.5478 7.65573 52.7778 7.55587 52.9541 7.44403C53.0768 7.52392 53.1803 7.63576 53.2646 7.77956C53.3489 7.92336 53.3911 8.07514 53.3911 8.23492C53.3911 8.59442 53.2301 8.86204 52.9081 9.03779C52.6628 9.1736 52.3868 9.26547 52.0801 9.31341C51.7735 9.36134 51.486 9.38531 51.2177 9.38531ZM50.8957 4.67591C50.7117 4.67591 50.5507 4.70787 50.4127 4.77178C50.2823 4.83569 50.175 4.91957 50.0907 5.02342C50.0064 5.11929 49.9412 5.23113 49.8952 5.35895C49.8568 5.47878 49.8339 5.60261 49.8262 5.73043L51.7926 5.3949C51.7696 5.23513 51.6853 5.07535 51.5396 4.91557C51.394 4.7558 51.1793 4.67591 50.8957 4.67591Z" fill="white"/>
</svg>
